<svg width="27" height="19" viewBox="0 0 27 19" fill="none" xmlns="http://www.w3.org/2000/svg">
<path fill-rule="evenodd" clip-rule="evenodd" d="M2.48811 5.44733C2.48811 2.80922 5.54563 2.38471 5.88932 2.3483L5.61772 0C3.675 0.202427 0 1.60267 0 5.44515V18.5199H2.48811V11.7816H6.43325V9.42379H2.48811V5.44733V5.44733Z" fill="#C2D1F8"/>
<path d="M22.0165 4.95946H22.0252C24.3262 4.9631 26.7997 6.60509 26.7997 10.1927V18.5199H24.3131V10.1927C24.3131 9.25994 24.0713 8.5012 23.6184 7.99951C23.4255 7.78688 23.1903 7.61795 22.9274 7.50363C22.6645 7.38931 22.3798 7.33179 22.0929 7.3347C20.6199 7.3347 19.7395 8.52159 19.7395 9.66917V18.5192H17.2442V10.192C17.2442 9.25776 17.0039 8.49902 16.5509 7.99732C16.358 7.7847 16.1228 7.61577 15.8599 7.50072C15.5971 7.3864 15.3131 7.32815 15.0262 7.33179C13.8939 7.33179 12.6721 8.2245 12.6721 9.66771V18.5177H10.1832V9.67499C10.1876 9.05169 10.315 8.4364 10.5582 7.86261C10.8014 7.28883 11.156 6.76965 11.6017 6.33421C12.5053 5.44805 13.6959 4.94853 14.9672 4.96019H14.9745C15.6378 4.96674 16.2932 5.11164 16.8968 5.38616C17.5005 5.66067 18.04 6.05897 18.4806 6.55557C18.9167 6.07062 19.4468 5.6796 20.0388 5.40582C20.6585 5.11674 21.3335 4.96528 22.0165 4.96019V4.95946Z" fill="white"/>
</svg>
