<svg width="96" height="28" viewBox="0 0 96 28" fill="none" xmlns="http://www.w3.org/2000/svg">
<path d="M52.0144 18.0055C52.0144 20.9803 48.3144 20.8038 48.3144 20.8038H44.6146V15.4284H48.3144C52.1221 15.4028 52.0144 18.0055 52.0144 18.0055ZM44.6146 7.2305H47.4339C50.3615 7.38524 50.251 9.56611 50.251 9.56611C50.251 12.2763 47.0138 12.3205 47.0138 12.3205H44.6146V7.2305ZM51.33 13.3776C51.33 13.3776 53.8625 12.2979 53.8399 9.43394C53.8399 9.43394 54.2251 4.74043 48.0099 4.16796H41.1135V23.8442H49.0185C49.0185 23.8442 55.6235 23.8639 55.6235 18.2925C55.6234 18.2925 55.7796 14.501 51.33 13.3776ZM33.4821 0.3125H62.5176V27.6887H33.4821V0.3125ZM18.5319 18.0055C18.5319 20.9803 14.8319 20.8038 14.8319 20.8038H11.1318V15.4284H14.8319C18.6399 15.4028 18.5319 18.0055 18.5319 18.0055ZM11.1318 7.2305H13.9517C16.8794 7.38524 16.7686 9.56611 16.7686 9.56611C16.7686 12.2763 13.5316 12.3205 13.5316 12.3205H11.1318V7.2305ZM17.8478 13.3776C17.8478 13.3776 20.3806 12.2979 20.3579 9.43394C20.3579 9.43394 20.7428 4.74043 14.5276 4.16796H7.63088V23.8442H15.5364C15.5364 23.8442 22.1413 23.8639 22.1413 18.2925C22.1413 18.2925 22.2969 14.501 17.8478 13.3776ZM-6.10352e-05 0.3125H29.0354V27.6887H-6.10352e-05V0.3125ZM90.0768 5.57859V9.21379C90.0768 9.21379 86.5304 7.03321 82.6115 6.98931C82.6115 6.98931 75.3 6.84571 74.9705 14.0016C74.9705 14.0016 74.7064 20.5825 82.5234 20.9575C82.5234 20.9575 85.8032 21.3527 90.2527 18.5138V22.2786C90.2527 22.2786 84.2841 25.8267 77.3698 23.0939C77.3698 23.0939 71.5575 20.9702 71.3361 14.0016C71.3361 14.0016 71.0944 6.83428 78.8462 4.45506C78.8462 4.45506 80.9162 3.66214 84.6362 4.01456C84.6363 4.01446 86.8597 4.23452 90.0768 5.57859ZM66.9645 27.6887H95.9999V0.3125H66.9645V27.6887Z" fill="white"/>
</svg>
