<svg width="91" height="42" viewBox="0 0 91 42" fill="none" xmlns="http://www.w3.org/2000/svg">
<g clip-path="url(#clip0_1199_38614)">
<path fill-rule="evenodd" clip-rule="evenodd" d="M21.9229 12H28.9229V7H21.9229C18.2098 7 14.6489 8.475 12.0234 11.1005C9.39785 13.726 7.92285 17.287 7.92285 21C7.92285 24.713 9.39785 28.274 12.0234 30.8995C14.6489 33.525 18.2098 35 21.9229 35H34.7529C34.9065 35 35.0586 34.9697 35.2006 34.9109C35.3425 34.8521 35.4715 34.766 35.5802 34.6573C35.6888 34.5487 35.775 34.4197 35.8338 34.2777C35.8926 34.1358 35.9229 33.9837 35.9229 33.83V8.17V8.16828C35.9241 7.47074 36.1553 6.79307 36.5807 6.24029C37.0062 5.68752 37.6021 5.2905 38.2761 5.11077C38.95 4.93104 39.6645 4.97864 40.3087 5.24617C40.9529 5.51371 41.4908 5.98626 41.8392 6.59058L41.8411 6.59379L57.7392 34.4106L57.7399 34.4118C57.8685 34.6342 58.0668 34.8082 58.3041 34.9068C58.5419 35.0055 58.8056 35.0231 59.0543 34.9568C59.3031 34.8904 59.523 34.7439 59.68 34.5399C59.8371 34.3358 59.9224 34.0857 59.9229 33.8283V8.17V8.16828C59.9241 7.47074 60.1553 6.79307 60.5807 6.24029C61.0062 5.68752 61.6021 5.2905 62.2761 5.11077C62.95 4.93104 63.6645 4.97864 64.3087 5.24617C64.9529 5.51371 65.4908 5.98626 65.8392 6.59058L65.8411 6.59379L81.7392 34.4106L81.7402 34.4123C81.8688 34.6345 82.067 34.8083 82.3041 34.9068C82.5419 35.0055 82.8056 35.0231 83.0543 34.9568C83.3031 34.8904 83.523 34.7439 83.68 34.5399C83.8371 34.3358 83.9224 34.0857 83.9229 33.8283V0H78.9229V19.41L70.1829 4.12C69.2884 2.55779 67.9029 1.33475 66.2419 0.6409C64.5808 -0.0529504 62.737 -0.178759 60.9971 0.28302C59.2571 0.744799 57.7184 1.76831 56.62 3.19453C55.5216 4.62075 54.925 6.36983 54.9229 8.17V19.41L46.1828 4.12C45.2883 2.55779 43.9029 1.33475 42.2418 0.6409C40.5808 -0.0529504 38.737 -0.178759 36.9971 0.28302C35.2571 0.744799 33.7184 1.76831 32.62 3.19453C31.5216 4.62075 30.925 6.36983 30.9229 8.17V28.83C30.9229 29.1403 30.7996 29.4379 30.5802 29.6573C30.3607 29.8767 30.0632 30 29.7529 30H21.9229C19.5359 30 17.2467 29.0518 15.5589 27.364C13.8711 25.6761 12.9229 23.3869 12.9229 21C12.9229 18.6131 13.8711 16.3239 15.5589 14.636C17.2467 12.9482 19.5359 12 21.9229 12ZM85.9229 0H90.9229V33.83C90.9207 35.6302 90.3241 37.3792 89.2257 38.8055C88.1273 40.2317 86.5886 41.2552 84.8486 41.717C83.1087 42.1788 81.2649 42.053 79.6039 41.3591C77.9428 40.6652 76.5574 39.4422 75.6628 37.88L66.9229 22.59V33.83C66.9207 35.6302 66.3241 37.3792 65.2257 38.8055C64.1273 40.2317 62.5886 41.2552 60.8486 41.717C59.1087 42.1788 57.2649 42.053 55.6039 41.3591C53.9428 40.6652 52.5574 39.4422 51.6628 37.88L42.9229 22.59V33.83C42.9229 35.9968 42.0621 38.0749 40.5299 39.6071C38.9977 41.1392 36.9197 42 34.7528 42H21.9229C16.3533 42 11.0119 39.7875 7.07361 35.8492C3.13535 31.911 0.922852 26.5695 0.922852 21C0.922852 15.4305 3.13535 10.089 7.07361 6.15076C11.0119 2.21249 16.3533 0 21.9229 0H28.9229V5H21.9229C17.6794 5 13.6097 6.68571 10.6091 9.68629C7.60856 12.6869 5.92285 16.7565 5.92285 21C5.92285 25.2435 7.60856 29.3131 10.6091 32.3137C13.6097 35.3143 17.6794 37 21.9229 37H34.7529C35.1691 37 35.5814 36.918 35.966 36.7587C36.3506 36.5994 36.7 36.3659 36.9944 36.0715C37.2887 35.7772 37.5222 35.4277 37.6815 35.0431C37.8409 34.6585 37.9229 34.2463 37.9229 33.83V8.17172V8.17082C37.9235 7.91368 38.0088 7.66391 38.1657 7.46013C38.3227 7.25611 38.5426 7.10958 38.7914 7.04324C39.0401 6.97691 39.3038 6.99447 39.5416 7.09322C39.7788 7.19171 39.9769 7.36549 40.1055 7.58772L40.1065 7.58942L56.0046 35.4062L56.0065 35.4094C56.3549 36.0137 56.8928 36.4863 57.537 36.7538C58.1812 37.0214 58.8957 37.069 59.5696 36.8892C60.2436 36.7095 60.8395 36.3125 61.265 35.7597C61.6904 35.2069 61.9216 34.5293 61.9228 33.8317L61.9229 33.83L61.9228 8.17172L61.9229 8.17014C61.9236 7.91325 62.009 7.66374 62.1657 7.46013C62.3227 7.25611 62.5426 7.10958 62.7914 7.04324C63.0401 6.97691 63.3038 6.99447 63.5416 7.09322C63.7788 7.19171 63.9769 7.36549 64.1055 7.58772L64.1065 7.58942L80.0046 35.4062L80.0065 35.4094C80.3549 36.0137 80.8928 36.4863 81.537 36.7538C82.1812 37.0214 82.8957 37.069 83.5696 36.8892C84.2436 36.7095 84.8395 36.3125 85.265 35.7597C85.6904 35.2069 85.9216 34.5293 85.9229 33.8317V33.83V0Z" fill="white"/>
</g>
<defs>
<clipPath id="clip0_1199_38614">
<rect width="90" height="42" fill="white" transform="translate(0.922852)"/>
</clipPath>
</defs>
</svg>
