<svg width="102" height="34" viewBox="0 0 102 34" fill="none" xmlns="http://www.w3.org/2000/svg">
<g clip-path="url(#clip0_1199_38613)">
<path d="M33.96 33.61V0.390015H0V33.61H33.96Z" fill="#D7E0FF"/>
<path d="M68.08 33.61V0.390015H33.96V33.61H68.08Z" fill="white"/>
<path d="M101.64 33.61V0.390015H68.08V33.61H101.64Z" fill="#D7E0FF"/>
<path d="M20.5339 26.004V15.944C20.5339 14.464 20.2539 13.384 19.6739 12.684C19.0939 11.984 18.1739 11.664 16.8739 11.664C16.1939 11.684 15.5539 11.864 14.9539 12.164C14.3339 12.444 13.7739 12.884 13.3539 13.424V26.024H9.29395V8.52402H12.2339L12.9939 10.164C14.0939 8.88402 15.7339 8.24402 17.9139 8.24402C19.9939 8.24402 21.6339 8.86402 22.8339 10.104C24.0339 11.344 24.6339 13.084 24.6339 15.304V26.024L20.5339 26.004Z" fill="#0D45FD"/>
<path d="M50.694 26.344C53.354 26.344 55.474 25.564 57.014 24.024C58.554 22.484 59.334 20.284 59.334 17.424C59.334 11.284 56.554 8.22401 50.974 8.22401C49.574 8.18401 48.214 8.70401 47.214 9.68401V8.52401H43.134V30.644H47.194V25.584C48.294 26.104 49.494 26.364 50.694 26.344ZM49.794 11.704C51.674 11.704 53.014 12.124 53.834 12.964C54.654 13.804 55.054 15.264 55.054 17.324C55.054 19.264 54.634 20.664 53.834 21.564C53.014 22.464 51.674 22.904 49.794 22.904C48.854 22.924 47.934 22.604 47.214 22.004V12.844C47.874 12.124 48.814 11.724 49.794 11.704V11.704Z" fill="#0D45FD"/>
<path d="M89.654 12.344C88.934 11.884 88.114 11.644 87.274 11.664C86.334 11.664 85.494 12.084 84.774 12.944C84.034 13.824 83.634 14.944 83.674 16.084V26.004H79.594V8.52402H83.674V10.204C84.814 8.90402 86.314 8.24402 88.214 8.24402C89.594 8.24402 90.654 8.46402 91.394 8.88402L89.654 12.344V12.344Z" fill="#0D45FD"/>
</g>
<defs>
<clipPath id="clip0_1199_38613">
<rect width="101.64" height="33.22" fill="white" transform="translate(0 0.390015)"/>
</clipPath>
</defs>
</svg>
