<svg width="61" height="46" viewBox="0 0 61 46" fill="none" xmlns="http://www.w3.org/2000/svg">
<g clip-path="url(#clip0_1199_38616)">
<path d="M30.6491 10.4153C25.4122 10.4175 20.3865 12.5688 16.658 16.4043C12.9295 20.2398 10.7977 25.4514 10.7233 30.9129H18.371C18.4309 27.5569 19.7506 24.3594 22.0463 22.0072C24.3421 19.6551 27.4309 18.336 30.6491 18.3334C33.8679 18.335 36.9576 19.6537 39.2541 22.0059C41.5507 24.3582 42.8708 27.5563 42.9308 30.9129H50.5709C50.4965 25.4521 48.3653 20.2411 44.6377 16.4058C40.91 12.5704 35.8853 10.4186 30.6491 10.4153Z" fill="white"/>
<path d="M30.6491 0C22.7639 0.00242796 15.1983 3.25108 9.59708 9.03973C3.99586 14.8284 0.811811 22.689 0.737122 30.9129H8.52862C8.60307 24.8439 10.966 19.0497 15.1059 14.7843C19.2459 10.5188 24.8298 8.1254 30.6491 8.122C36.4691 8.12421 42.0542 10.5171 46.195 14.7827C50.3359 19.0482 52.6995 24.8431 52.7739 30.9129H60.5571C60.4824 22.6898 57.2989 14.8297 51.6986 9.04118C46.0982 3.25265 38.5336 0.00351374 30.6491 0Z" fill="white"/>
<path d="M30.6491 20.708C28.0347 20.7105 25.5248 21.7794 23.6559 23.6862C21.787 25.5931 20.7073 28.1868 20.6475 30.9129H40.6543C40.5945 28.1861 39.5143 25.5919 37.6446 23.6849C35.775 21.778 33.2642 20.7095 30.6491 20.708Z" fill="white"/>
<path d="M0.72467 33.6666V36.4939H3.96264V45.7347H7.12386V36.4939H10.3618V33.6666H0.72467Z" fill="white"/>
<path d="M41.574 33.666L37.1409 45.6902H40.6276L41.1803 44.0304H45.7785L46.3311 45.6902H49.8179L45.3847 33.666C44.1145 33.666 42.8443 33.666 41.574 33.666ZM43.4794 37.1252L44.8597 41.2709H42.099L43.4794 37.1252Z" fill="white"/>
<path d="M48.5323 33.6661L53.0447 40.8954V45.6901H56.0795V40.8954L60.5698 33.6661H57.1074L54.5665 38.049L52.0254 33.6661L48.5323 33.6661Z" fill="white"/>
<path d="M25.5841 33.6948V45.7035H30.8049C38.4994 45.824 39.4867 33.8256 30.8049 33.6948H25.5841ZM28.73 36.4775H31.0012C34.8683 36.4775 34.4008 42.9522 31.0012 42.9522H28.73V36.4775Z" fill="white"/>
<path d="M17.4319 33.5024C13.3783 33.5024 11.1477 36.2756 11.1477 39.6965C11.1477 43.1174 13.6236 45.9767 17.4932 45.9767C21.3319 45.9767 23.716 43.1174 23.716 39.6965C23.716 36.2756 21.332 33.5024 17.4319 33.5024ZM17.4752 36.325C19.426 36.325 20.6186 37.8432 20.6186 39.7159C20.6186 41.5887 19.4261 43.1541 17.506 43.1541C15.5705 43.1541 14.3321 41.5887 14.3321 39.7159C14.3321 37.8432 15.4477 36.325 17.4752 36.325Z" fill="white"/>
</g>
<defs>
<clipPath id="clip0_1199_38616">
<rect width="59.8604" height="45.9767" fill="white" transform="translate(0.717041)"/>
</clipPath>
</defs>
</svg>
