<svg width="224" height="30" viewBox="0 0 224 30" fill="none" xmlns="http://www.w3.org/2000/svg">
<path d="M199.359 20.5282C198.493 21.2372 196.524 22.9465 195.712 23.7083C194.955 23.0511 193.389 21.8523 192.416 21.1703V21.0537C192.698 20.9609 192.883 20.7084 192.883 20.0901V12.7976C192.099 12.2462 190.834 11.4262 189.994 10.9017L189.148 11.7477V20.4408L190.462 21.4034C190.462 21.4034 188.619 22.9465 187.807 23.7083C187.078 23.0253 186.009 22.2289 185.036 21.5199V21.4325C185.318 21.3408 185.502 21.0591 185.502 20.4408V12.7976C184.719 12.2462 183.483 11.4844 182.644 10.96L181.624 11.7477V20.4408L182.936 21.4034C182.936 21.4034 181.145 22.8451 180.282 23.6792C179.47 22.9702 178.592 22.3238 177.51 21.5199V21.4617C177.815 21.3419 178.006 20.9761 178.006 20.5574V11.7768L177.015 10.9308L175.935 11.9225L175.44 11.4261C176.25 10.77 177.981 9.26474 179.144 8.18781L181.624 10.347V10.96L184.978 8.18781C186.032 8.92375 189.148 10.8434 189.148 10.8434L192.358 8.18781C193.386 8.97554 195.728 10.3989 197.025 11.1348V11.2513C196.592 11.3636 196.558 11.8955 196.558 12.1847V20.0901L197.842 20.9944L198.862 20.0901L199.359 20.5282ZM175.498 5.32932C174.633 6.51092 173.928 7.05043 172.523 7.05043C171.575 7.05043 171.063 6.77635 170.305 5.88395L169.255 6.84653L168.788 6.29183L172.434 3.11181C173.382 4.97647 174.52 5.23864 175.44 5.21275L175.498 5.32932Z" fill="white"/>
<path d="M176.665 20.4701C175.718 21.2578 173.852 22.8743 172.989 23.7084C172.178 22.9994 170.803 21.9732 169.723 21.1704V21.0819C170.026 20.9621 170.189 20.5974 170.189 20.1787V11.7769L169.226 10.96L168.089 11.9517L167.622 11.4845C168.433 10.8284 170.192 9.26481 171.356 8.18789L174.302 10.7259V10.8435C173.951 10.9471 173.835 11.1672 173.835 11.9517V20.0902L175.118 20.9362L176.168 20.0028L176.665 20.4701ZM117.422 20.4701C116.474 21.2578 114.579 22.8743 113.716 23.7084C112.905 22.9994 111.53 21.9732 110.45 21.1704V21.0819C110.753 20.9621 110.916 20.5974 110.916 20.1787V6.55417L109.924 5.70817L108.845 6.64263L108.378 6.1754C109.189 5.51931 110.745 4.07224 111.907 2.99531L115.029 5.53331V5.64988C114.677 5.75455 114.533 5.9747 114.533 6.7592V20.0902L115.875 20.9654L116.954 20.0028L117.422 20.4701ZM83.904 20.5283C83.0397 21.2373 81.0401 22.9466 80.2298 23.7084C79.4722 23.0512 77.9356 21.8524 76.9623 21.1704V21.0538C77.2439 20.961 77.4587 20.7085 77.4587 20.0902V12.7977C76.6742 12.2463 75.4084 11.4554 74.5699 10.9309C74.3995 11.0539 73.725 11.5352 73.5491 11.6895V20.4409L74.8915 21.4035C74.8915 21.4035 73.1002 22.8451 72.237 23.6793C71.4255 22.9703 70.518 22.3239 69.4367 21.52V21.4618C69.74 21.342 69.932 20.9762 69.932 20.5575V11.7769L68.9112 10.9309L67.8904 11.7769L67.4534 11.3097C68.2638 10.6536 69.9363 9.26481 71.0996 8.18789L73.5491 10.3471V10.96L76.904 8.18789C77.9313 8.97562 80.2729 10.399 81.5711 11.1349V11.2514C81.1384 11.3636 81.0758 11.8956 81.0758 12.1848V20.0902L82.3588 20.9654L83.4088 20.0611L83.904 20.5283ZM218.378 21.5492V17.3191C217.863 17.0828 217.281 16.7548 216.773 16.5023L212.689 20.7032L212.836 20.7323C213.47 20.3967 213.725 19.9737 215.023 19.9737C216.348 19.9737 217.685 20.906 218.319 21.5783L218.378 21.5492ZM222.548 8.56771C222.548 9.98563 220.891 11.8643 218.698 11.8643C217.254 11.8643 216.399 11.1489 215.722 10.2306L215.665 10.2597V13.7894L217.648 14.7228L218.553 13.8186C219.488 14.3937 221.427 15.4016 222.461 15.8311V15.9185C222.258 16.0016 222.024 16.2282 222.024 16.648V19.1277C222.024 19.4838 222.272 19.7201 222.461 19.7989V19.9154C220.352 20.8089 217.321 22.421 215.84 23.7084C215.082 22.9994 214.062 22.3369 212.747 22.3369C211.515 22.3369 210.969 22.7761 210.969 23.1829C210.969 23.4365 211.493 23.4019 211.493 23.7667C211.493 23.9339 211.344 24.1163 211.113 24.1163C210.825 24.1163 210.298 23.717 210.298 23.212C210.298 22.2667 210.972 21.4456 212.514 19.8863L215.227 17.1443C214.111 16.5896 212.487 15.8926 211.581 15.5106V15.394C211.844 15.3206 212.019 15.0541 212.019 14.752V12.5053C212.019 12.2582 211.905 11.8816 211.581 11.7769V11.6593C213.852 10.8726 216.728 9.28747 218.378 8.15983C218.747 8.55801 219.728 9.41371 220.769 9.41371C221.646 9.41371 221.849 8.98212 221.849 8.68429C221.849 8.51487 221.528 8.42205 221.528 8.15983C221.528 7.9343 221.645 7.83829 221.82 7.83829C222.078 7.83829 222.548 8.08968 222.548 8.56771Z" fill="white"/>
<path d="M206.826 14.2857C206.069 13.2616 204.719 11.5837 203.88 10.3762L203.793 10.4053V16.1525L206.826 14.2857ZM210.21 12.9724L203.793 16.8517V19.5063C204.604 19.8484 206.282 20.5897 207.147 21.14L208.518 19.7696C208.898 19.3886 208.862 18.7197 209.539 18.7197C209.729 18.7197 209.919 19.0056 209.919 19.2149C209.919 19.4383 209.737 19.5451 209.626 19.653L205.455 23.7083C204.022 22.8148 201.112 21.5145 199.679 20.9361V20.8195C199.911 20.7354 200.175 20.581 200.175 20.0026V12.6217C200.175 12.0185 199.943 11.8243 199.679 11.7768V11.6592C201.843 10.9772 205.142 9.26468 206.71 8.18775C207.792 9.76322 209.182 11.7121 210.21 12.9724ZM164.238 20.7904V7.40109C164.076 7.41188 163.792 7.42915 163.626 7.42915C162.696 7.42915 161.063 7.0763 160.009 6.78818C156.872 7.33851 153.241 9.91754 153.241 14.7518C153.241 18.8977 156.274 21.549 160.592 21.549C162.052 21.549 163.341 21.3084 164.238 20.7904ZM167.972 3.84117C167.972 5.95618 166.525 7.02666 164.822 7.34175V20.4699C167.012 19.2883 167.33 18.0776 167.33 17.4646C167.33 17.3319 167.039 17.1506 167.039 16.9111C167.039 16.7244 167.278 16.5604 167.447 16.5604C167.694 16.5604 167.797 16.7795 167.797 17.1733C167.797 20.2455 164.782 24.3795 158.346 24.3795C153.517 24.3795 149.42 20.6976 149.42 15.9474C149.42 9.17401 155.252 6.81947 159.308 6.58315C157.822 6.26806 155.453 5.76626 153.475 5.76626C151.176 5.76626 149.274 7.0946 149.274 8.27621C149.274 8.72187 149.654 8.80606 149.654 9.12115C149.654 9.29488 149.579 9.50098 149.332 9.50098C148.954 9.50098 148.632 9.11681 148.632 8.82978C148.632 6.25616 150.531 2.58729 154.525 2.58729C158.574 2.58729 161.582 4.01597 164.734 4.01597C166.818 4.01597 167.411 3.30166 167.33 2.12006L167.797 2.26575C167.878 2.45027 167.972 3.05236 167.972 3.84117ZM136.672 21.549V17.319C136.159 17.0826 135.577 16.7546 135.068 16.5021L130.985 20.703L131.13 20.7321C131.765 20.3965 132.021 19.9735 133.319 19.9735C134.644 19.9735 135.981 20.9059 136.614 21.5781L136.672 21.549ZM140.844 8.56758C140.844 9.9855 139.187 11.8642 136.994 11.8642C135.55 11.8642 134.695 11.1488 134.018 10.2305L133.96 10.2596V13.7893L135.944 14.7227L136.847 13.8184C137.784 14.3936 139.723 15.4015 140.757 15.8309V15.9183C140.554 16.0014 140.319 16.2281 140.319 16.6478V19.1275C140.319 19.4836 140.567 19.72 140.757 19.7987V19.9152C138.647 20.8087 135.616 22.4209 134.134 23.7083C133.378 22.9993 132.358 22.3367 131.043 22.3367C129.809 22.3367 129.263 22.7759 129.263 23.1827C129.263 23.4363 129.789 23.4018 129.789 23.7665C129.789 23.9338 129.64 24.1161 129.409 24.1161C129.121 24.1161 128.592 23.7169 128.592 23.2118C128.592 22.2666 129.267 21.4454 130.81 19.8861L133.523 17.1442C132.406 16.5895 130.782 15.8924 129.876 15.5104V15.3939C130.14 15.3205 130.313 15.054 130.313 14.7518V12.5052C130.313 12.258 130.2 11.8815 129.876 11.7768V11.6592C132.148 10.8725 135.024 9.28734 136.672 8.15969C137.043 8.55788 138.022 9.41358 139.065 9.41358C139.942 9.41358 140.144 8.98198 140.144 8.68416C140.144 8.51474 139.823 8.42191 139.823 8.15969C139.823 7.93416 139.941 7.83815 140.115 7.83815C140.374 7.83815 140.844 8.08954 140.844 8.56758Z" fill="white"/>
<path d="M125.209 14.2857C124.452 13.2617 123.101 11.5837 122.263 10.3762L122.175 10.4053V16.1525L125.209 14.2857ZM128.592 12.9725L122.175 16.8518V19.5064C122.986 19.8484 124.664 20.5897 125.53 21.1401L126.901 19.7696C127.282 19.3887 127.247 18.7197 127.922 18.7197C128.111 18.7197 128.301 19.0056 128.301 19.215C128.301 19.4383 128.121 19.5452 128.01 19.6531L123.838 23.7083C122.405 22.8148 119.496 21.5145 118.063 20.9362V20.8196C118.293 20.7354 118.558 20.5811 118.558 20.0027V12.6218C118.558 12.0186 118.326 11.8243 118.063 11.7768V11.6592C120.226 10.9772 123.524 9.26472 125.093 8.1878C126.174 9.76326 127.565 11.7121 128.592 12.9725ZM106.161 14.2857C105.404 13.2617 104.053 11.5837 103.215 10.3762L103.128 10.4053V16.1525L106.161 14.2857ZM109.545 12.9725L103.128 16.8518V19.5064C103.939 19.8484 105.616 20.5897 106.482 21.1401L107.852 19.7696C108.233 19.3887 108.198 18.7197 108.874 18.7197C109.063 18.7197 109.253 19.0056 109.253 19.215C109.253 19.4383 109.073 19.5452 108.962 19.6531L104.79 23.7083C103.357 22.8148 100.448 21.5145 99.0145 20.9362V20.8196C99.2465 20.7354 99.5109 20.5811 99.5109 20.0027V12.6218C99.5109 12.0186 99.2778 11.8243 99.0145 11.7768V11.6592C101.178 10.9772 104.476 9.26472 106.045 8.1878C107.126 9.76326 108.517 11.7121 109.545 12.9725ZM92.6263 21.1703V12.9142C91.572 12.3369 89.8217 11.1725 88.6596 10.2013L88.6013 10.2305V19.4491C89.6555 19.9207 91.4048 20.9124 92.1893 21.4908L92.6263 21.1703ZM97.7023 22.5408C97.6149 25.8751 95.8916 28.1714 92.6846 28.1714C90.1757 28.1714 88.3423 26.9175 86.0633 26.9175C84.736 26.9175 84.0173 27.3135 83.6418 27.7624L83.467 27.675C83.6019 25.2601 85.3587 23.9123 87.6096 23.9123C90.0894 23.9123 91.8968 25.4586 94.5223 25.4586C96.1992 25.4586 97.0732 24.6028 97.2351 23.7374L97.206 23.6792C96.8542 23.8885 96.3945 24.1454 95.7189 24.1454C94.3658 24.1454 92.8993 23.2378 92.6554 21.6365C92.0101 22.0735 90.5782 23.1677 89.9426 23.7083C88.3585 22.7134 85.7892 21.4735 84.5461 20.9362V20.8196C84.8051 20.7376 84.9842 20.4257 84.9842 20.1193V12.5926C84.9842 12.1459 84.8342 11.8329 84.517 11.7768V11.6592C86.8154 10.8456 89.7473 9.33701 91.3433 8.12951C92.7256 9.19241 95.2593 10.6902 96.7398 11.5135V11.6592C96.415 11.7908 96.2434 12.0013 96.2434 12.7092V20.8196C96.2434 21.8609 96.3427 22.5699 97.1185 22.5699C97.2415 22.5699 97.3894 22.4674 97.4973 22.3368L97.7023 22.5408ZM60.6271 15.0724L57.856 6.78822L54.7935 15.0724H60.6271ZM68.8821 20.3826L65.2067 23.7083C64.1794 22.9993 63.2956 22.4242 61.9986 21.6365V21.4908C62.2921 21.3872 62.4324 21.1001 62.4356 20.7613C62.4367 20.6124 62.3989 20.4516 62.3482 20.2951L61.2983 17.0859H54.0349L53.0724 19.7696C54.5744 19.7696 55.3449 19.9369 56.0765 20.2358L56.806 18.9528L57.3898 19.2441L54.8809 23.7374C53.8968 23.1935 52.7843 22.7738 51.526 22.7738C50.0434 22.7738 48.9244 23.1493 48.3762 23.65C48.2661 23.7504 48.1075 23.7234 48.1722 23.5043C48.7668 21.4821 50.1049 19.9401 52.4012 19.7988L57.4772 6.14613C56.9517 4.77461 56.4434 4.22104 55.1723 4.22104C53.982 4.22104 52.8101 4.75739 52.8101 6.17531C52.8101 6.83139 53.4802 6.77528 53.4802 7.2544C53.4802 7.42273 53.3313 7.60511 53.1015 7.60511C52.6688 7.60511 52.2264 7.04505 52.2264 5.94222C52.2264 3.44737 54.3198 1.97442 56.4564 1.97442C58.4031 1.97442 59.1865 2.70389 59.7811 3.49162C59.971 2.75676 60.6918 2.26897 61.2691 2.17833L61.4439 2.4697C61.0835 2.90457 60.8893 3.2898 60.8893 3.84122C60.8893 4.12825 61.0123 4.72069 61.0943 4.95053L66.5491 20.2951L67.4825 20.8487L68.4742 19.9445L68.8821 20.3826ZM38.3126 21.5491V17.319C37.799 17.0827 37.2162 16.7547 36.708 16.5022L32.6247 20.7031L32.7704 20.7322C33.4049 20.3966 33.6596 19.9736 34.9577 19.9736C36.2829 19.9736 37.6198 20.9059 38.2543 21.5782L38.3126 21.5491ZM42.4833 8.56762C42.4833 9.98554 40.8258 11.8642 38.6331 11.8642C37.1903 11.8642 36.3336 11.1488 35.6581 10.2305L35.5998 10.2596V13.7893L37.5831 14.7227L38.4874 13.8185C39.423 14.3936 41.3621 15.4015 42.3959 15.831V15.9184C42.1941 16.0015 41.9588 16.2281 41.9588 16.6479V19.1276C41.9588 19.4837 42.2071 19.72 42.3959 19.7988V19.9153C40.2874 20.8088 37.2562 22.4209 35.7746 23.7083C35.0171 22.9993 33.9984 22.3368 32.683 22.3368C31.4496 22.3368 30.9036 22.776 30.9036 23.1828C30.9036 23.4364 31.4281 23.4019 31.4281 23.7666C31.4281 23.9338 31.2791 24.1162 31.0493 24.1162C30.7601 24.1162 30.2324 23.7169 30.2324 23.2119C30.2324 22.2666 30.9068 21.4455 32.4489 19.8862L35.1617 17.1442C34.0459 16.5896 32.4219 15.8925 31.5155 15.5105V15.3939C31.7787 15.3205 31.9536 15.054 31.9536 14.7519V12.5052C31.9536 12.2581 31.8403 11.8815 31.5155 11.7768V11.6592C33.7869 10.8725 36.6627 9.28738 38.3126 8.15974C38.6816 8.55792 39.6625 9.41362 40.7039 9.41362C41.5812 9.41362 41.7829 8.98203 41.7829 8.6842C41.7829 8.51478 41.4625 8.42196 41.4625 8.15974C41.4625 7.93421 41.5812 7.8382 41.7538 7.8382C42.0128 7.8382 42.4833 8.08959 42.4833 8.56762ZM25.5654 21.5782V12.9142C24.3212 12.2581 22.4921 10.9362 21.6267 10.2013L21.5684 10.2305V19.0693C22.7586 19.6995 24.5338 20.7937 25.5071 21.6073L25.5654 21.5782ZM29.6778 19.9153C27.8692 20.6329 24.3665 22.4209 22.8525 23.7083C21.2566 22.5785 18.9365 21.0894 17.456 20.265V20.1786C17.8348 20.047 17.9222 19.7783 17.9222 19.3316V12.7092C17.9222 12.1006 17.7808 11.8815 17.456 11.7768V11.6592C19.9433 10.7668 22.2806 9.49781 24.2812 8.15974C25.6603 9.15681 28.0829 10.6244 29.6778 11.5427V11.6592C29.3896 11.7725 29.1824 12.0595 29.1824 12.5052V19.0693C29.1824 19.5419 29.381 19.72 29.6778 19.7988V19.9153ZM10.3675 19.011V6.72993C8.59346 6.5411 7.81331 5.39838 7.21765 4.71639L5.49651 6.05873C5.50514 7.92663 6.03282 9.44061 6.69214 10.9308C7.29427 12.2926 7.97625 14.0558 7.97625 15.2763C7.97625 17.2888 6.82702 18.5589 4.09585 21.0537L4.18325 21.1401C5.80619 19.9595 8.18773 19.0466 10.3675 19.011ZM17.047 18.9819L14.3936 23.7957C13.0037 22.8547 10.7721 22.2785 8.87942 22.2785C5.14794 22.2785 2.59159 22.9227 1.26647 23.7374L1.09167 23.5626C2.27543 22.5558 4.27173 20.9405 4.27173 17.2608C4.27173 15.7101 3.62861 13.9533 3.16245 12.7976C2.62399 11.4596 2.19991 10.756 2.19991 8.88811C2.19991 5.63574 4.00951 3.79916 6.83779 2.41253L7.04282 2.67473C6.06625 3.46247 5.61196 4.4779 5.46736 5.50411L9.98874 1.82873C11.1466 3.40743 12.2376 4.01602 13.6641 4.01602C14.8338 4.01602 15.1802 3.51213 15.1802 3.11179C15.1802 2.8226 14.7723 2.78265 14.7723 2.49993C14.7723 2.23124 14.9612 2.14922 15.1219 2.14922C15.4813 2.14922 15.8223 2.59917 15.8223 2.93693C15.8223 5.15121 13.7666 6.78822 11.739 6.78822C11.3872 6.78822 11.1455 6.82599 10.9221 6.78822V19.011C12.68 19.011 14.3515 19.4923 15.6766 20.1495L16.4935 18.7488L17.047 18.9819ZM163.042 8.56762C163.042 8.75107 162.828 8.88811 162.692 8.88811C162.459 8.88811 162.262 8.45111 161.613 8.45111C160.658 8.45111 159.862 9.24421 159.862 10.1722C159.862 12.6142 162.343 13.6016 162.343 16.3856C162.343 18.7207 159.99 20.074 157.558 20.3826L157.091 20.061C158.424 19.8926 159.075 19.447 159.075 17.8737C159.075 15.7468 156.8 14.0159 156.8 11.5135C156.8 9.49022 158.76 7.9256 161.438 7.9256C161.959 7.9256 162.468 8.08094 162.75 8.21691C162.913 8.29568 163.042 8.41008 163.042 8.56762Z" fill="white"/>
</svg>
